<svg width="400" height="400" viewBox="0 0 400 400" xmlns="http://www.w3.org/2000/svg">
  <defs>
    <linearGradient id="tealGradient" x1="0%" y1="0%" x2="100%" y2="100%">
      <stop offset="0%" style="stop-color:#00EC97;stop-opacity:1" />
      <stop offset="100%" style="stop-color:#00D689;stop-opacity:1" />
    </linearGradient>
    <radialGradient id="tealRadial" cx="50%" cy="30%">
      <stop offset="0%" style="stop-color:#00EC97;stop-opacity:1" />
      <stop offset="100%" style="stop-color:#00A86B;stop-opacity:1" />
    </radialGradient>
    <filter id="shadow">
      <feGaussianBlur in="SourceAlpha" stdDeviation="4"/>
      <feOffset dx="3" dy="3" result="offsetblur"/>
      <feComponentTransfer>
        <feFuncA type="linear" slope="0.4"/>
      </feComponentTransfer>
      <feMerge>
        <feMergeNode/>
        <feMergeNode in="SourceGraphic"/>
      </feMerge>
    </filter>
  </defs>
  
  <!-- Base circle with gradient -->
  <circle cx="200" cy="200" r="190" fill="url(#tealRadial)" filter="url(#shadow)"/>
  
  <!-- Outer textured ring with pill-shaped protrusions -->
  <g>
    <rect x="20" y="190" width="8" height="20" rx="4" fill="url(#tealGradient)" transform="rotate(0 200 200)"/>
    <rect x="20" y="190" width="8" height="20" rx="4" fill="url(#tealGradient)" transform="rotate(10 200 200)"/>
    <rect x="20" y="190" width="8" height="20" rx="4" fill="url(#tealGradient)" transform="rotate(20 200 200)"/>
    <rect x="20" y="190" width="8" height="20" rx="4" fill="url(#tealGradient)" transform="rotate(30 200 200)"/>
    <rect x="20" y="190" width="8" height="20" rx="4" fill="url(#tealGradient)" transform="rotate(40 200 200)"/>
    <rect x="20" y="190" width="8" height="20" rx="4" fill="url(#tealGradient)" transform="rotate(50 200 200)"/>
    <rect x="20" y="190" width="8" height="20" rx="4" fill="url(#tealGradient)" transform="rotate(60 200 200)"/>
    <rect x="20" y="190" width="8" height="20" rx="4" fill="url(#tealGradient)" transform="rotate(70 200 200)"/>
    <rect x="20" y="190" width="8" height="20" rx="4" fill="url(#tealGradient)" transform="rotate(80 200 200)"/>
    <rect x="20" y="190" width="8" height="20" rx="4" fill="url(#tealGradient)" transform="rotate(90 200 200)"/>
    <rect x="20" y="190" width="8" height="20" rx="4" fill="url(#tealGradient)" transform="rotate(100 200 200)"/>
    <rect x="20" y="190" width="8" height="20" rx="4" fill="url(#tealGradient)" transform="rotate(110 200 200)"/>
    <rect x="20" y="190" width="8" height="20" rx="4" fill="url(#tealGradient)" transform="rotate(120 200 200)"/>
    <rect x="20" y="190" width="8" height="20" rx="4" fill="url(#tealGradient)" transform="rotate(130 200 200)"/>
    <rect x="20" y="190" width="8" height="20" rx="4" fill="url(#tealGradient)" transform="rotate(140 200 200)"/>
    <rect x="20" y="190" width="8" height="20" rx="4" fill="url(#tealGradient)" transform="rotate(150 200 200)"/>
    <rect x="20" y="190" width="8" height="20" rx="4" fill="url(#tealGradient)" transform="rotate(160 200 200)"/>
    <rect x="20" y="190" width="8" height="20" rx="4" fill="url(#tealGradient)" transform="rotate(170 200 200)"/>
    <rect x="20" y="190" width="8" height="20" rx="4" fill="url(#tealGradient)" transform="rotate(180 200 200)"/>
    <rect x="20" y="190" width="8" height="20" rx="4" fill="url(#tealGradient)" transform="rotate(190 200 200)"/>
    <rect x="20" y="190" width="8" height="20" rx="4" fill="url(#tealGradient)" transform="rotate(200 200 200)"/>
    <rect x="20" y="190" width="8" height="20" rx="4" fill="url(#tealGradient)" transform="rotate(210 200 200)"/>
    <rect x="20" y="190" width="8" height="20" rx="4" fill="url(#tealGradient)" transform="rotate(220 200 200)"/>
    <rect x="20" y="190" width="8" height="20" rx="4" fill="url(#tealGradient)" transform="rotate(230 200 200)"/>
    <rect x="20" y="190" width="8" height="20" rx="4" fill="url(#tealGradient)" transform="rotate(240 200 200)"/>
    <rect x="20" y="190" width="8" height="20" rx="4" fill="url(#tealGradient)" transform="rotate(250 200 200)"/>
    <rect x="20" y="190" width="8" height="20" rx="4" fill="url(#tealGradient)" transform="rotate(260 200 200)"/>
    <rect x="20" y="190" width="8" height="20" rx="4" fill="url(#tealGradient)" transform="rotate(270 200 200)"/>
    <rect x="20" y="190" width="8" height="20" rx="4" fill="url(#tealGradient)" transform="rotate(280 200 200)"/>
    <rect x="20" y="190" width="8" height="20" rx="4" fill="url(#tealGradient)" transform="rotate(290 200 200)"/>
    <rect x="20" y="190" width="8" height="20" rx="4" fill="url(#tealGradient)" transform="rotate(300 200 200)"/>
    <rect x="20" y="190" width="8" height="20" rx="4" fill="url(#tealGradient)" transform="rotate(310 200 200)"/>
    <rect x="20" y="190" width="8" height="20" rx="4" fill="url(#tealGradient)" transform="rotate(320 200 200)"/>
    <rect x="20" y="190" width="8" height="20" rx="4" fill="url(#tealGradient)" transform="rotate(330 200 200)"/>
    <rect x="20" y="190" width="8" height="20" rx="4" fill="url(#tealGradient)" transform="rotate(340 200 200)"/>
    <rect x="20" y="190" width="8" height="20" rx="4" fill="url(#tealGradient)" transform="rotate(350 200 200)"/>
  </g>
  
  <!-- Inner concentric rings for 3D effect -->
  <circle cx="200" cy="200" r="160" fill="url(#tealGradient)" opacity="0.85"/>
  <circle cx="200" cy="200" r="130" fill="url(#tealGradient)" opacity="0.9"/>
  
  <!-- Center flat surface -->
  <circle cx="200" cy="200" r="110" fill="url(#tealGradient)"/>
  
  <!-- Central "N" symbol with rounded edges -->
  <path d="M 145 165 L 145 235 L 165 235 L 165 200 L 235 235 L 255 235 L 255 165 L 235 165 L 235 200 L 165 165 Z" 
        fill="#1A1A1A" 
        filter="url(#shadow)"/>
</svg>
